<svg width="247" height="39" viewBox="0 0 247 39" fill="none" xmlns="http://www.w3.org/2000/svg">
<path d="M13.0424 1.625C15.2299 1.625 17.2393 2.02036 19.0707 2.81109L17.7735 5.79543C16.4763 5.23428 15.0391 4.9537 13.4621 4.9537C12.1395 4.9537 11.1602 5.20877 10.5243 5.71891C9.88838 6.22906 9.57043 7.01978 9.57043 8.09109V11.6876H16.3237L15.8277 14.8633H9.57043V30.4354H5.29721V14.8633H0.71875V11.6876H5.29721V8.05283C5.29721 6.77746 5.62151 5.65514 6.27013 4.68587C6.91874 3.71659 7.82807 2.96413 8.99812 2.42848C10.1682 1.89283 11.5163 1.625 13.0424 1.625Z" fill="#D0343A"></path>
<path d="M39.1029 25.4971C39.1029 26.2623 39.2174 26.8298 39.4463 27.1997C39.6752 27.5695 40.0695 27.8437 40.6291 28.0223L39.6371 30.9301C37.5259 30.675 36.1396 29.744 35.4783 28.1371C34.7407 29.0553 33.8186 29.7504 32.7121 30.2223C31.6057 30.6942 30.3911 30.9301 29.0685 30.9301C27.0336 30.9301 25.4184 30.3562 24.2229 29.2084C23.0274 28.0605 22.4297 26.5428 22.4297 24.6553C22.4297 22.5382 23.2627 20.9057 24.9288 19.7579C26.5948 18.6101 28.954 18.0362 32.0063 18.0362H34.8678V16.7353C34.8678 15.4599 34.4863 14.5289 33.7232 13.9423C32.9601 13.3556 31.8537 13.0623 30.4038 13.0623C29.6916 13.0623 28.865 13.1515 27.9238 13.3301C26.9827 13.5086 26.0289 13.7637 25.0623 14.0953L23.994 11.0727C26.4104 10.1544 28.7632 9.69531 31.0525 9.69531C33.7232 9.69531 35.7327 10.282 37.0808 11.4553C38.4289 12.6286 39.1029 14.2994 39.1029 16.4675V25.4971ZM30.3275 27.7927C31.2178 27.7927 32.0762 27.5631 32.9029 27.104C33.7296 26.6449 34.3846 26.0072 34.8678 25.191V20.7144H32.5023C30.5692 20.7144 29.1575 21.0397 28.2672 21.6901C27.377 22.3405 26.9318 23.2779 26.9318 24.5023C26.9318 25.5736 27.218 26.3898 27.7903 26.951C28.3626 27.5121 29.2084 27.7927 30.3275 27.7927Z" fill="#D0343A"></path>
<path d="M54.6302 0.320312C55.4442 0.320312 56.1119 0.581762 56.6333 1.10466C57.1548 1.62756 57.4155 2.27162 57.4155 3.03683C57.4155 3.80205 57.1548 4.43973 56.6333 4.94988C56.1119 5.46002 55.4442 5.7151 54.6302 5.7151C53.7909 5.7151 53.1168 5.46002 52.6081 4.94988C52.0994 4.43973 51.845 3.80205 51.845 3.03683C51.845 2.24611 52.1057 1.59567 52.6272 1.08553C53.1486 0.575385 53.8163 0.320312 54.6302 0.320312ZM57.5681 27.2942H63.0623V30.4316H47.3047V27.2942H53.2949V13.3673H47.4955V10.2299H57.5681V27.2942Z" fill="#D0343A"></path>
<path d="M83.7428 9.73438C84.7857 9.73438 85.8031 9.90017 86.7951 10.2318L86.0702 17.6926H83.0179V13.5605C81.6189 13.586 80.4044 14.1471 79.3742 15.2439C78.3441 16.3408 77.5237 17.8839 76.9133 19.8735V27.3726H80.9576V30.4335H69.6641V27.3726H72.6401V13.2926H69.6641V10.2318H75.8831L76.6462 14.8996C77.4347 13.1651 78.3949 11.8706 79.5268 11.0161C80.6587 10.1616 82.0641 9.73438 83.7428 9.73438Z" fill="#D0343A"></path>
<path d="M102.211 9.69531C107.095 9.69531 109.536 13.2281 109.536 20.2936C109.536 23.482 108.862 26.0518 107.514 28.0031C106.166 29.9544 104.246 30.9301 101.753 30.9301C99.6418 30.9301 97.9376 30.1904 96.6404 28.711V38.1997L92.3672 38.6971V10.231H96.0681L96.3352 12.8327C97.0983 11.8124 97.9822 11.0344 98.9869 10.4988C99.9916 9.96314 101.066 9.69531 102.211 9.69531ZM101.028 12.9857C100.138 12.9857 99.3239 13.2536 98.5863 13.7892C97.8486 14.3249 97.2 15.0263 96.6404 15.8936V25.344C97.6324 26.8489 98.9551 27.6014 100.608 27.6014C102.084 27.6014 103.19 27.0147 103.928 25.8414C104.665 24.6681 105.034 22.8315 105.034 20.3318C105.034 17.7556 104.704 15.8872 104.042 14.7266C103.381 13.566 102.376 12.9857 101.028 12.9857Z" fill="#D0343A"></path>
<path d="M123.31 0.320312C124.124 0.320312 124.792 0.581762 125.313 1.10466C125.834 1.62756 126.095 2.27162 126.095 3.03683C126.095 3.80205 125.834 4.43973 125.313 4.94988C124.792 5.46002 124.124 5.7151 123.31 5.7151C122.471 5.7151 121.796 5.46002 121.288 4.94988C120.779 4.43973 120.525 3.80205 120.525 3.03683C120.525 2.24611 120.785 1.59567 121.307 1.08553C121.828 0.575385 122.496 0.320312 123.31 0.320312ZM126.248 27.2942H131.742V30.4316H115.984V27.2942H121.975V13.3673H116.175V10.2299H126.248V27.2942Z" fill="#D0343A"></path>
<path d="M147.88 27.4101C149.482 27.4101 151.136 26.8362 152.84 25.6884L154.786 28.4431C153.896 29.2084 152.827 29.8142 151.581 30.2605C150.335 30.7069 149.05 30.9301 147.727 30.9301C144.65 30.9301 142.246 29.98 140.516 28.0797C138.787 26.1794 137.922 23.635 137.922 20.4466C137.922 18.3805 138.316 16.5376 139.105 14.9179C139.893 13.2982 141.031 12.0228 142.519 11.0918C144.007 10.1608 145.769 9.69531 147.804 9.69531C150.474 9.69531 152.802 10.5115 154.786 12.144L152.802 14.8223C151.174 13.7 149.533 13.1388 147.88 13.1388C146.201 13.1388 144.879 13.7446 143.912 14.9562C142.945 16.1678 142.462 17.9979 142.462 20.4466C142.462 22.8443 142.945 24.6043 143.912 25.7266C144.879 26.8489 146.201 27.4101 147.88 27.4101Z" fill="#D0343A"></path>
<path d="M177.864 29.3614C177.101 29.846 176.211 30.2286 175.193 30.5092C174.176 30.7898 173.108 30.9301 171.988 30.9301C169.699 30.9301 167.931 30.337 166.685 29.1509C165.439 27.9648 164.816 26.3515 164.816 24.3109V13.3683H160.352V10.2309H164.816V5.71614L169.089 5.21875V10.2309H175.918L175.422 13.3683H169.089V24.2727C169.089 25.3695 169.369 26.1793 169.928 26.7022C170.488 27.2251 171.378 27.4866 172.599 27.4866C173.947 27.4866 175.193 27.1677 176.338 26.5301L177.864 29.3614Z" fill="#D0343A"></path>
<path d="M188.203 24.3448C188.203 25.5182 188.438 26.3663 188.909 26.8892C189.379 27.4121 190.098 27.6735 191.064 27.6735C191.98 27.6735 192.864 27.4057 193.716 26.87C194.568 26.3344 195.249 25.6584 195.757 24.8422V10.2266H200.031V30.4283H196.33L196.063 27.8266C195.35 28.8213 194.422 29.5866 193.277 30.1222C192.133 30.6579 190.95 30.9257 189.729 30.9257C187.796 30.9257 186.346 30.4028 185.38 29.357C184.413 28.3112 183.93 26.819 183.93 24.8805V10.2266H188.203V24.3448Z" fill="#D0343A"></path>
<path d="M221.094 9.73438C222.137 9.73438 223.155 9.90017 224.147 10.2318L223.422 17.6926H220.369V13.5605C218.97 13.586 217.756 14.1471 216.726 15.2439C215.696 16.3408 214.875 17.8839 214.265 19.8735V27.3726H218.309V30.4335H207.016V27.3726H209.992V13.2926H207.016V10.2318H213.235L213.998 14.8996C214.786 13.1651 215.746 11.8706 216.878 11.0161C218.01 10.1616 219.416 9.73438 221.094 9.73438Z" fill="#D0343A"></path>
<path d="M233.27 21.7092C233.397 23.6733 233.963 25.1463 234.967 26.1284C235.972 27.1104 237.238 27.6014 238.764 27.6014C239.705 27.6014 240.602 27.4547 241.454 27.1614C242.306 26.8681 243.177 26.4281 244.067 25.8414L245.899 28.4431C244.957 29.2339 243.851 29.846 242.579 30.2797C241.307 30.7133 239.972 30.9301 238.573 30.9301C235.495 30.9301 233.104 29.9672 231.4 28.0414C229.696 26.1156 228.844 23.5457 228.844 20.3318C228.844 18.3168 229.213 16.4994 229.95 14.8797C230.688 13.26 231.756 11.991 233.155 11.0727C234.554 10.1544 236.182 9.69531 238.039 9.69531C240.71 9.69531 242.827 10.5944 244.391 12.3927C245.956 14.191 246.738 16.6588 246.738 19.7962C246.738 20.5614 246.7 21.1991 246.623 21.7092H233.27ZM238.077 12.871C236.703 12.871 235.584 13.3684 234.719 14.3631C233.855 15.3579 233.359 16.8373 233.231 18.8014H242.579C242.528 16.8884 242.121 15.4217 241.358 14.4014C240.595 13.3811 239.501 12.871 238.077 12.871Z" fill="#D0343A"></path>
</svg>