<svg width="250" height="250" viewBox="0 0 250 250" fill="none" xmlns="http://www.w3.org/2000/svg">
<rect width="250" height="250" fill="#D0343A"></rect>
<path d="M147.614 22.4746C137.63 22.2768 127.722 24.2319 118.561 28.2071C110.644 31.6243 103.851 37.2063 98.9618 44.3123C94.245 51.4219 91.8069 59.802 91.973 68.3342V94.2673H59.082V116.925H91.9724V228.027H122.671V116.925H167.621L171.184 94.2677H122.671V68.6088C122.671 60.9649 124.955 55.3233 129.523 51.684C134.088 48.045 141.123 46.2251 150.627 46.2242C161.253 46.0873 171.794 48.1311 181.6 52.2293L190.918 30.9367C177.211 25.1877 162.473 22.3079 147.612 22.4749" fill="white"></path>
</svg>